<svg viewBox="0 0 55 55" fill="none" xmlns="http://www.w3.org/2000/svg">
    <path d="M28.6434 9.52698C29.3783 8.54855 30.1546 7.9243 30.1546 6.87432C30.1546 5.40887 29.2199 4.58264 27.5011 4.58264C25.7824 4.58264 24.8476 5.40887 24.8476 6.87432C24.8476 7.92098 25.619 8.54472 26.3518 9.51776L26.3522 11.5034C24.9288 11.6037 23.5254 11.8948 22.1795 12.3689C22.371 11.714 22.603 11.2038 22.3717 10.6412C22.0163 9.77712 21.2649 9.51673 20.2514 9.93347C19.238 10.3502 18.8872 11.0641 19.2426 11.9282C19.4728 12.4882 19.9933 12.6884 20.5868 13.0165L20.5903 13.025C19.298 13.6464 18.0946 14.4377 17.0119 15.3779L15.6121 13.9787C15.4398 12.7671 15.5475 11.7767 14.8049 11.0341C13.7687 9.99792 12.5235 10.0746 11.3081 11.29C10.0928 12.5053 10.016 13.7506 11.0523 14.7868C11.7922 15.5268 12.7785 15.4225 13.9845 15.5923L15.3906 16.9978C14.4386 18.092 13.639 19.31 13.0136 20.6187L12.9929 20.6102C12.6649 20.0169 12.4646 19.4964 11.9046 19.2661C11.0405 18.9107 10.3267 19.2615 9.90993 20.275C9.49313 21.2883 9.75358 22.0398 10.6177 22.3952C11.1804 22.6267 11.6908 22.3943 12.346 22.2029L12.3606 22.2089C11.8939 23.5421 11.6067 24.9315 11.5065 26.3405L9.54538 26.3408C8.56684 25.6059 7.94253 24.8294 6.89249 24.8294C5.42698 24.8294 4.60083 25.7642 4.60083 27.4829C4.60083 29.2017 5.42698 30.1365 6.89249 30.1365C7.93904 30.1365 8.56277 29.3652 9.53576 28.6325L11.5045 28.6321C11.6031 30.05 11.891 31.4483 12.3606 32.7897L12.346 32.7957C11.6908 32.6042 11.1804 32.3719 10.6177 32.6034C9.75358 32.9588 9.49313 33.7102 9.90993 34.7236C10.3267 35.7371 11.0405 36.0879 11.9046 35.7325C12.4646 35.5022 12.6648 34.9818 12.9929 34.3884L13.0135 34.3799C13.6368 35.6837 14.4328 36.8975 15.38 37.9887L13.9974 39.3719C12.7856 39.5443 11.7949 39.4366 11.0523 40.1792C10.016 41.2155 10.0928 42.4606 11.3082 43.676C12.5235 44.8913 13.7687 44.9681 14.8049 43.9318C15.545 43.1918 15.4407 42.2054 15.6105 40.9994L16.9995 39.6099C18.0853 40.5548 19.293 41.3498 20.5903 41.9735L20.5866 41.9823C19.9933 42.3103 19.4728 42.5105 19.2426 43.0704C18.8871 43.9346 19.2379 44.6483 20.2514 45.0652C21.2649 45.482 22.0163 45.2215 22.3717 44.3574C22.603 43.7949 22.371 43.2846 22.1795 42.6297C23.5274 43.1045 24.933 43.3959 26.3586 43.4957L26.3589 45.4388C25.6239 46.4173 24.8475 47.0416 24.8475 48.0917C24.8475 49.5572 25.7823 50.3833 27.5011 50.3833C29.2198 50.3833 30.1546 49.5572 30.1546 48.0917C30.1546 47.0451 29.3833 46.4214 28.6506 45.4484L28.6503 43.4953C30.0535 43.3962 31.4375 43.1118 32.7661 42.6493C32.5758 43.2946 32.3508 43.8006 32.5798 44.3574C32.9352 45.2215 33.6866 45.482 34.7001 45.0652C35.7135 44.6483 36.0643 43.9346 35.7089 43.0704C35.4804 42.5147 34.9659 42.3132 34.378 41.9894C35.6902 41.3626 36.9114 40.5609 38.0081 39.6061L39.3902 40.9876C39.5624 42.199 39.4548 43.1893 40.1973 43.9318C41.2336 44.9681 42.4788 44.8913 43.6941 43.676C44.9094 42.4606 44.9862 41.2155 43.9499 40.1792C43.2099 39.4391 42.2234 39.5434 41.0173 39.3736L39.6273 37.9841C40.5645 36.9043 41.3535 35.7042 41.9735 34.4159C42.2927 34.9977 42.4957 35.5058 43.0469 35.7325C43.911 36.0879 44.6248 35.7371 45.0416 34.7236C45.4584 33.7102 45.1979 32.9588 44.3339 32.6034C43.7826 32.3767 43.2809 32.595 42.6448 32.7839C43.1139 31.4422 43.4013 30.0437 43.4994 28.6257L45.4571 28.6253C46.4356 29.3602 47.0599 30.1365 48.1098 30.1365C49.5753 30.1365 50.4014 29.2017 50.4014 27.4829C50.4014 25.7642 49.5753 24.8294 48.1098 24.8294C47.0632 24.8294 46.4394 25.6008 45.4663 26.3336L43.4965 26.3341C43.3959 24.9293 43.1095 23.5441 42.6448 22.2147C43.2809 22.4037 43.7827 22.622 44.3339 22.3953C45.1979 22.0399 45.4584 21.2884 45.0416 20.275C44.6248 19.2615 43.911 18.9107 43.0469 19.2662C42.4957 19.4929 42.2927 20.001 41.9736 20.5828C41.3492 19.2855 40.5535 18.0778 39.6079 16.9921L41.0054 15.5939C42.217 15.4216 43.2075 15.5293 43.9499 14.7868C44.9862 13.7506 44.9094 12.5053 43.6941 11.29C42.4788 10.0747 41.2336 9.99792 40.1973 11.0341C39.4572 11.7742 39.5616 12.7608 39.3917 13.9671L37.9861 15.3734C36.8949 14.4269 35.6814 13.6318 34.3781 13.0092C34.9659 12.6855 35.4804 12.4839 35.7089 11.9281C36.0643 11.064 35.7135 10.3502 34.7001 9.93341C33.6867 9.51661 32.9352 9.77712 32.5798 10.6412C32.3508 11.198 32.5758 11.704 32.7661 12.3493C31.4355 11.8861 30.0493 11.6014 28.6438 11.5028L28.6434 9.52698ZM18.0152 28.5534C17.433 29.1355 16.4892 29.1355 15.907 28.5534C15.3249 27.9712 15.3249 27.0274 15.9071 26.4452C16.4892 25.8631 17.433 25.8631 18.0152 26.4452C18.5973 27.0273 18.5974 27.9711 18.0153 28.5533C18.0152 28.5533 18.0152 28.5533 18.0152 28.5534ZM22.7584 35.4048C21.8852 36.2779 20.4695 36.278 19.5962 35.4048C18.723 34.5316 18.723 33.1158 19.5962 32.2426C20.4694 31.3694 21.8852 31.3694 22.7584 32.2426C22.7584 32.2426 22.7584 32.2426 22.7584 32.2426C23.6316 33.1158 23.6316 34.5315 22.7584 35.4048ZM22.7584 22.7561C21.8852 23.6293 20.4694 23.6293 19.5962 22.7561C18.723 21.8829 18.723 20.4671 19.5962 19.5939C20.4694 18.7206 21.8852 18.7206 22.7584 19.5939C23.6316 20.4671 23.6316 21.8828 22.7584 22.7561ZM28.5557 39.094C27.9736 39.6761 27.0297 39.6761 26.4476 39.094C25.8655 38.5118 25.8655 37.568 26.4476 36.9858C27.0298 36.4038 27.9736 36.4038 28.5557 36.9858C29.1379 37.568 29.1379 38.5119 28.5557 39.094ZM36.9882 26.4452C37.5704 25.8631 38.5142 25.8631 39.0964 26.4452C39.6785 27.0274 39.6785 27.9712 39.0964 28.5534C38.5142 29.1355 37.5704 29.1355 36.9882 28.5534C36.4061 27.9712 36.4061 27.0274 36.9882 26.4452ZM32.245 19.5939C33.1183 18.7207 34.534 18.7207 35.4072 19.5939C36.2804 20.4672 36.2803 21.8829 35.4071 22.7561C34.5339 23.6293 33.1182 23.6293 32.245 22.7561C31.3718 21.883 31.3717 20.4673 32.2447 19.5941C32.2449 19.594 32.2449 19.5939 32.245 19.5939H32.245ZM32.245 32.2426C33.1182 31.3694 34.5339 31.3694 35.4071 32.2426C36.2803 33.1158 36.2803 34.5316 35.4071 35.4048C34.5339 36.2779 33.1182 36.2779 32.245 35.4048C31.3718 34.5316 31.3717 33.116 32.2449 32.2427C32.2449 32.2427 32.245 32.2427 32.245 32.2426H32.245ZM29.0828 29.0804C28.2095 29.9536 26.7938 29.9536 25.9205 29.0804C25.0474 28.2072 25.0474 26.7914 25.9206 25.9182C26.7938 25.045 28.2095 25.045 29.0828 25.9182C29.956 26.7914 29.9561 28.2071 29.0829 29.0803C29.0828 29.0803 29.0828 29.0804 29.0828 29.0804ZM28.5557 18.0127C27.9736 18.5949 27.0298 18.5949 26.4476 18.0127C25.8655 17.4306 25.8655 16.4868 26.4476 15.9047C27.0298 15.3225 27.9736 15.3225 28.5557 15.9047C29.1379 16.4868 29.1379 17.4306 28.5558 18.0127C28.5557 18.0127 28.5557 18.0127 28.5557 18.0127Z" fill="#EF9713"/>
</svg>