<svg width="400" height="400" viewBox="0 0 400 400" fill="none" xmlns="http://www.w3.org/2000/svg">
<path d="M124.266 178.971L33.8857 196.586L57.6388 318.456L148.019 300.84L124.266 178.971Z" fill="#EF9713"/>
<path d="M180.554 202.215H88.4705V326.382H180.554V202.215Z" fill="#F2F2F2"/>
<path d="M167.429 307.163H101.595V306.747H167.429V307.163ZM167.429 302.913H101.595V303.33H167.429V302.913ZM167.429 299.08H101.595V299.497H167.429V299.08ZM167.429 295.247H101.595V295.663H167.429V295.247ZM167.429 291.413H101.595V291.83H167.429V291.413ZM167.429 287.58H101.595V287.997H167.429V287.58ZM167.429 283.747H101.595V284.163H167.429V283.747ZM167.429 279.913H101.595V280.33H167.429V279.913ZM167.429 276.08H101.595V276.497H167.429V276.08ZM167.429 272.247H101.595V272.663H167.429V272.247ZM167.429 268.413H101.595V268.83H167.429V268.413ZM167.429 264.58H101.595V264.997H167.429V264.58ZM167.429 260.747H101.595V261.163H167.429V260.747ZM167.429 256.913H101.595V257.33H167.429V256.913ZM167.429 253.08H101.595V253.497H167.429V253.08ZM167.429 249.247H101.595V249.663H167.429V249.247ZM167.429 245.413H101.595V245.83H167.429V245.413ZM167.429 241.58H101.595V241.997H167.429V241.58ZM167.429 237.747H101.595V238.163H167.429V237.747ZM167.429 233.913H101.595V234.33H167.429V233.913ZM167.429 230.08H101.595V230.497H167.429V230.08ZM167.429 226.247H101.595V226.663H167.429V226.247ZM167.429 222.413H101.595V222.83H167.429V222.413Z" fill="#CFCFCF"/>
<path d="M368.559 213.518C366.979 210.063 356.142 211.473 339.79 214.018C328.65 215.752 316.023 217.717 314.832 215.239C314.571 214.695 314.809 213.543 317.429 211.141C319.076 209.631 319.604 208.075 318.997 206.516C316.757 200.757 299.105 197.083 290.621 197.083H288.333V194.583H274.583V200.622H288.333V197.917H290.621C300.153 197.917 316.309 201.905 318.221 206.818C318.697 208.042 318.254 209.255 316.867 210.526C314.392 212.795 313.507 214.407 314.081 215.6C315.442 218.431 324.75 217.202 339.919 214.841C352.315 212.912 366.366 210.725 367.801 213.865C368.214 214.768 367.667 216.728 362.712 220.932C341.439 238.982 345.883 255.177 351.509 275.682C353.254 282.041 355.058 288.617 356.321 295.905C358.97 311.188 352.04 319.947 345.76 324.603C334.928 332.635 318.702 333.93 314.033 331.579C313.553 331.338 312.982 330.94 312.982 330.416V326.666H314.648V316.666H310.482V326.666H312.148V330.416C312.148 330.94 312.41 331.695 313.658 332.323C315.085 333.042 317.577 333.461 320.676 333.461C327.831 333.461 338.228 331.226 346.257 325.273C352.725 320.477 359.864 311.464 357.142 295.762C355.872 288.435 354.063 281.839 352.313 275.461C349.472 265.105 347.018 256.162 347.848 247.458C348.757 237.94 353.651 229.713 363.252 221.568C367.669 217.819 369.356 215.261 368.559 213.518Z" fill="#CFCFCF"/>
<path d="M273.192 310.876L190.828 323.552L189.944 317.805L272.308 305.129L281.397 306.662L273.192 310.876Z" fill="#EF9713"/>
<path d="M253.578 309.403L203.334 317.135L203.398 317.547L253.641 309.815L253.578 309.403Z" fill="white"/>
<path d="M75.8646 285H36.2279C34.3683 285 32.8608 283.493 32.8608 281.633V198.741C32.8608 196.882 34.3683 195.374 36.2279 195.374H75.8646C77.7242 195.374 79.2317 196.882 79.2317 198.741V281.633C79.2317 283.493 77.7242 285 75.8646 285Z" fill="#505050"/>
<path d="M40.6101 244.983C41.9462 244.983 43.0293 243.9 43.0293 242.564C43.0293 241.228 41.9462 240.145 40.6101 240.145C39.274 240.145 38.1909 241.228 38.1909 242.564C38.1909 243.9 39.274 244.983 40.6101 244.983Z" fill="#737373"/>
<path d="M48.4729 244.983C49.809 244.983 50.8921 243.9 50.8921 242.564C50.8921 241.228 49.809 240.145 48.4729 240.145C47.1368 240.145 46.0537 241.228 46.0537 242.564C46.0537 243.9 47.1368 244.983 48.4729 244.983Z" fill="#737373"/>
<path d="M40.1471 230.813C41.0379 230.813 41.76 230.091 41.76 229.201C41.76 228.31 41.0379 227.588 40.1471 227.588C39.2563 227.588 38.5342 228.31 38.5342 229.201C38.5342 230.091 39.2563 230.813 40.1471 230.813Z" fill="#CFCFCF"/>
<path d="M48.0101 230.813C48.9009 230.813 49.623 230.091 49.623 229.201C49.623 228.31 48.9009 227.588 48.0101 227.588C47.1193 227.588 46.3972 228.31 46.3972 229.201C46.3972 230.091 47.1193 230.813 48.0101 230.813Z" fill="#737373"/>
<path d="M56.3359 244.983C57.672 244.983 58.7551 243.9 58.7551 242.564C58.7551 241.228 57.672 240.145 56.3359 240.145C54.9998 240.145 53.9167 241.228 53.9167 242.564C53.9167 243.9 54.9998 244.983 56.3359 244.983Z" fill="#737373"/>
<path d="M64.1989 244.983C65.535 244.983 66.6181 243.9 66.6181 242.564C66.6181 241.228 65.535 240.145 64.1989 240.145C62.8629 240.145 61.7798 241.228 61.7798 242.564C61.7798 243.9 62.8629 244.983 64.1989 244.983Z" fill="#737373"/>
<path d="M72.0617 244.983C73.3978 244.983 74.4809 243.9 74.4809 242.564C74.4809 241.228 73.3978 240.145 72.0617 240.145C70.7257 240.145 69.6426 241.228 69.6426 242.564C69.6426 243.9 70.7257 244.983 72.0617 244.983Z" fill="#737373"/>
<path d="M40.6101 252.644C41.9462 252.644 43.0293 251.561 43.0293 250.225C43.0293 248.889 41.9462 247.806 40.6101 247.806C39.274 247.806 38.1909 248.889 38.1909 250.225C38.1909 251.561 39.274 252.644 40.6101 252.644Z" fill="#CFCFCF"/>
<path d="M48.4729 252.644C49.809 252.644 50.8921 251.561 50.8921 250.225C50.8921 248.889 49.809 247.806 48.4729 247.806C47.1368 247.806 46.0537 248.889 46.0537 250.225C46.0537 251.561 47.1368 252.644 48.4729 252.644Z" fill="#737373"/>
<path d="M56.3359 252.644C57.672 252.644 58.7551 251.561 58.7551 250.225C58.7551 248.889 57.672 247.806 56.3359 247.806C54.9998 247.806 53.9167 248.889 53.9167 250.225C53.9167 251.561 54.9998 252.644 56.3359 252.644Z" fill="#737373"/>
<path d="M64.1989 252.644C65.535 252.644 66.6181 251.561 66.6181 250.225C66.6181 248.889 65.535 247.806 64.1989 247.806C62.8629 247.806 61.7798 248.889 61.7798 250.225C61.7798 251.561 62.8629 252.644 64.1989 252.644Z" fill="#737373"/>
<path d="M72.0617 252.644C73.3978 252.644 74.4809 251.561 74.4809 250.225C74.4809 248.889 73.3978 247.806 72.0617 247.806C70.7257 247.806 69.6426 248.889 69.6426 250.225C69.6426 251.561 70.7257 252.644 72.0617 252.644Z" fill="#CFCFCF"/>
<path d="M40.6101 260.306C41.9462 260.306 43.0293 259.223 43.0293 257.886C43.0293 256.55 41.9462 255.467 40.6101 255.467C39.274 255.467 38.1909 256.55 38.1909 257.886C38.1909 259.223 39.274 260.306 40.6101 260.306Z" fill="#CFCFCF"/>
<path d="M48.4729 260.306C49.809 260.306 50.8921 259.223 50.8921 257.886C50.8921 256.55 49.809 255.467 48.4729 255.467C47.1368 255.467 46.0537 256.55 46.0537 257.886C46.0537 259.223 47.1368 260.306 48.4729 260.306Z" fill="#737373"/>
<path d="M56.3359 260.306C57.672 260.306 58.7551 259.223 58.7551 257.886C58.7551 256.55 57.672 255.467 56.3359 255.467C54.9998 255.467 53.9167 256.55 53.9167 257.886C53.9167 259.223 54.9998 260.306 56.3359 260.306Z" fill="#737373"/>
<path d="M64.1989 260.306C65.535 260.306 66.6181 259.223 66.6181 257.886C66.6181 256.55 65.535 255.467 64.1989 255.467C62.8629 255.467 61.7798 256.55 61.7798 257.886C61.7798 259.223 62.8629 260.306 64.1989 260.306Z" fill="#737373"/>
<path d="M72.0617 260.306C73.3978 260.306 74.4809 259.223 74.4809 257.886C74.4809 256.55 73.3978 255.467 72.0617 255.467C70.7257 255.467 69.6426 256.55 69.6426 257.886C69.6426 259.223 70.7257 260.306 72.0617 260.306Z" fill="#CFCFCF"/>
<path d="M40.6101 267.967C41.9462 267.967 43.0293 266.884 43.0293 265.548C43.0293 264.212 41.9462 263.128 40.6101 263.128C39.274 263.128 38.1909 264.212 38.1909 265.548C38.1909 266.884 39.274 267.967 40.6101 267.967Z" fill="#CFCFCF"/>
<path d="M48.4729 267.967C49.809 267.967 50.8921 266.884 50.8921 265.548C50.8921 264.212 49.809 263.128 48.4729 263.128C47.1368 263.128 46.0537 264.212 46.0537 265.548C46.0537 266.884 47.1368 267.967 48.4729 267.967Z" fill="#737373"/>
<path d="M56.3359 267.967C57.672 267.967 58.7551 266.884 58.7551 265.548C58.7551 264.212 57.672 263.128 56.3359 263.128C54.9998 263.128 53.9167 264.212 53.9167 265.548C53.9167 266.884 54.9998 267.967 56.3359 267.967Z" fill="#737373"/>
<path d="M64.1989 267.967C65.535 267.967 66.6181 266.884 66.6181 265.548C66.6181 264.212 65.535 263.128 64.1989 263.128C62.8629 263.128 61.7798 264.212 61.7798 265.548C61.7798 266.884 62.8629 267.967 64.1989 267.967Z" fill="#737373"/>
<path d="M72.0617 267.967C73.3978 267.967 74.4809 266.884 74.4809 265.548C74.4809 264.212 73.3978 263.128 72.0617 263.128C70.7257 263.128 69.6426 264.212 69.6426 265.548C69.6426 266.884 70.7257 267.967 72.0617 267.967Z" fill="#CFCFCF"/>
<path d="M40.6101 275.628C41.9462 275.628 43.0293 274.545 43.0293 273.209C43.0293 271.873 41.9462 270.79 40.6101 270.79C39.274 270.79 38.1909 271.873 38.1909 273.209C38.1909 274.545 39.274 275.628 40.6101 275.628Z" fill="#CFCFCF"/>
<path d="M48.4729 275.628C49.809 275.628 50.8921 274.545 50.8921 273.209C50.8921 271.873 49.809 270.79 48.4729 270.79C47.1368 270.79 46.0537 271.873 46.0537 273.209C46.0537 274.545 47.1368 275.628 48.4729 275.628Z" fill="#737373"/>
<path d="M56.3359 275.628C57.672 275.628 58.7551 274.545 58.7551 273.209C58.7551 271.873 57.672 270.79 56.3359 270.79C54.9998 270.79 53.9167 271.873 53.9167 273.209C53.9167 274.545 54.9998 275.628 56.3359 275.628Z" fill="#CFCFCF"/>
<path d="M64.1989 275.628C65.535 275.628 66.6181 274.545 66.6181 273.209C66.6181 271.873 65.535 270.79 64.1989 270.79C62.8629 270.79 61.7798 271.873 61.7798 273.209C61.7798 274.545 62.8629 275.628 64.1989 275.628Z" fill="#EF9713"/>
<path d="M72.0617 275.628C73.3978 275.628 74.4809 274.545 74.4809 273.209C74.4809 271.873 73.3978 270.79 72.0617 270.79C70.7257 270.79 69.6426 271.873 69.6426 273.209C69.6426 274.545 70.7257 275.628 72.0617 275.628Z" fill="#CFCFCF"/>
<path d="M75.756 207.96H37.0464V221.894H75.756V207.96Z" fill="#CFCFCF"/>
<path d="M46.6095 202.114H36.7725V204.118H46.6095V202.114Z" fill="#CFCFCF"/>
<path d="M336.019 232.912C336.019 230.614 334.155 228.75 331.857 228.75H293.81C291.512 228.75 289.648 230.614 289.648 232.912V314.63C289.648 316.929 291.512 318.792 293.81 318.792H331.857C334.155 318.792 336.019 316.929 336.019 314.63V232.912Z" fill="#505050"/>
<path d="M333.701 233.333H291.967V313.462H333.701V233.333Z" fill="#E6E6E6"/>
<path d="M291.967 287.2V301.745V313.462H333.701V245.466L291.967 287.2Z" fill="#D2D2D2"/>
<path d="M323.398 283.333H301.732C301.041 283.333 300.482 282.774 300.482 282.083C300.482 281.393 301.041 280.833 301.732 280.833H323.398C324.089 280.833 324.648 281.393 324.648 282.083C324.648 282.774 324.089 283.333 323.398 283.333Z" fill="white"/>
<path d="M323.398 289.167H301.732C301.041 289.167 300.482 288.607 300.482 287.917C300.482 287.226 301.041 286.667 301.732 286.667H323.398C324.089 286.667 324.648 287.226 324.648 287.917C324.648 288.607 324.089 289.167 323.398 289.167Z" fill="white"/>
<path d="M279.648 180.417H274.583V192.083H279.648V180.417Z" fill="#737373"/>
<path d="M271.61 285H104.11C101.349 285 99.1104 282.761 99.1104 280V165C99.1104 162.239 101.349 160 104.11 160H271.61C274.372 160 276.61 162.239 276.61 165V280C276.61 282.762 274.372 285 271.61 285Z" fill="#737373"/>
<path d="M250.777 158.333H125.36V170.417H250.777V158.333Z" fill="#2F2F2F"/>
<path d="M214.921 279.167H160.687C159.264 279.167 158.111 278.014 158.111 276.591V246.742C158.111 245.32 159.264 244.167 160.687 244.167H214.921C216.344 244.167 217.497 245.32 217.497 246.742V276.591C217.497 278.014 216.343 279.167 214.921 279.167Z" fill="#505050"/>
<path d="M265.04 238.75L111.06 238.686C109.322 238.685 107.913 237.276 107.913 235.538V172.537C107.913 170.798 109.323 169.389 111.062 169.39L265.042 169.453C266.78 169.454 268.189 170.863 268.189 172.601V235.602C268.189 237.341 266.779 238.751 265.04 238.75Z" fill="#505050"/>
<path d="M125.415 179.701H112.556C111.994 179.701 111.539 180.157 111.539 180.718V187.837C111.539 188.399 111.994 188.854 112.556 188.854H125.415C125.977 188.854 126.433 188.399 126.433 187.837V180.718C126.432 180.157 125.977 179.701 125.415 179.701Z" fill="#2F2F2F"/>
<path d="M128.349 187.837V180.718C128.349 180.157 128.804 179.701 129.366 179.701H136.484C137.046 179.701 137.502 180.157 137.502 180.718V187.837C137.502 188.399 137.046 188.854 136.484 188.854H129.366C128.804 188.854 128.349 188.399 128.349 187.837Z" fill="#2F2F2F"/>
<path d="M139.418 187.837V180.718C139.418 180.157 139.873 179.701 140.435 179.701H147.554C148.115 179.701 148.571 180.157 148.571 180.718V187.837C148.571 188.399 148.115 188.854 147.554 188.854H140.435C139.873 188.854 139.418 188.399 139.418 187.837Z" fill="#2F2F2F"/>
<path d="M150.488 187.837V180.718C150.488 180.157 150.943 179.701 151.505 179.701H158.623C159.185 179.701 159.64 180.157 159.64 180.718V187.837C159.64 188.399 159.185 188.854 158.623 188.854H151.504C150.943 188.854 150.488 188.399 150.488 187.837Z" fill="#2F2F2F"/>
<path d="M161.557 187.837V180.718C161.557 180.157 162.012 179.701 162.574 179.701H169.692C170.254 179.701 170.71 180.157 170.71 180.718V187.837C170.71 188.399 170.254 188.854 169.692 188.854H162.574C162.012 188.854 161.557 188.399 161.557 187.837Z" fill="#2F2F2F"/>
<path d="M172.626 187.837V180.718C172.626 180.157 173.081 179.701 173.643 179.701H180.762C181.323 179.701 181.779 180.157 181.779 180.718V187.837C181.779 188.399 181.323 188.854 180.762 188.854H173.643C173.081 188.854 172.626 188.399 172.626 187.837Z" fill="#2F2F2F"/>
<path d="M183.695 187.837V180.718C183.695 180.157 184.15 179.701 184.712 179.701H191.831C192.393 179.701 192.848 180.157 192.848 180.718V187.837C192.848 188.399 192.393 188.854 191.831 188.854H184.712C184.15 188.854 183.695 188.399 183.695 187.837Z" fill="#2F2F2F"/>
<path d="M194.764 187.837V180.718C194.764 180.157 195.22 179.701 195.781 179.701H202.9C203.462 179.701 203.917 180.157 203.917 180.718V187.837C203.917 188.399 203.462 188.854 202.9 188.854H195.781C195.22 188.854 194.764 188.399 194.764 187.837Z" fill="#2F2F2F"/>
<path d="M205.834 187.837V180.718C205.834 180.157 206.289 179.701 206.851 179.701H213.97C214.531 179.701 214.987 180.157 214.987 180.718V187.837C214.987 188.399 214.531 188.854 213.97 188.854H206.851C206.289 188.854 205.834 188.399 205.834 187.837Z" fill="#2F2F2F"/>
<path d="M216.903 187.837V180.718C216.903 180.157 217.358 179.701 217.92 179.701H225.039C225.6 179.701 226.056 180.157 226.056 180.718V187.837C226.056 188.399 225.6 188.854 225.039 188.854H217.92C217.358 188.854 216.903 188.399 216.903 187.837Z" fill="#2F2F2F"/>
<path d="M227.972 187.837V180.718C227.972 180.157 228.428 179.701 228.989 179.701H236.108C236.67 179.701 237.125 180.157 237.125 180.718V187.837C237.125 188.399 236.67 188.854 236.108 188.854H228.989C228.428 188.854 227.972 188.399 227.972 187.837Z" fill="#2F2F2F"/>
<path d="M239.041 187.837V180.718C239.041 180.157 239.497 179.701 240.058 179.701H247.177C247.739 179.701 248.194 180.157 248.194 180.718V187.837C248.194 188.399 247.739 188.854 247.177 188.854H240.058C239.497 188.854 239.041 188.399 239.041 187.837Z" fill="#2F2F2F"/>
<path d="M119.675 200.549H112.556C111.994 200.549 111.539 200.094 111.539 199.532V192.413C111.539 191.852 111.994 191.396 112.556 191.396H119.675C120.236 191.396 120.692 191.852 120.692 192.413V199.532C120.691 200.094 120.236 200.549 119.675 200.549Z" fill="#2F2F2F"/>
<path d="M122.608 199.532V192.413C122.608 191.852 123.063 191.396 123.625 191.396H130.744C131.305 191.396 131.761 191.852 131.761 192.413V199.532C131.761 200.094 131.305 200.549 130.744 200.549H123.625C123.063 200.549 122.608 200.094 122.608 199.532Z" fill="#2F2F2F"/>
<path d="M133.677 199.532V192.413C133.677 191.852 134.132 191.396 134.694 191.396H141.813C142.375 191.396 142.83 191.852 142.83 192.413V199.532C142.83 200.094 142.375 200.549 141.813 200.549H134.694C134.132 200.549 133.677 200.094 133.677 199.532Z" fill="#2F2F2F"/>
<path d="M144.746 199.532V192.413C144.746 191.852 145.202 191.396 145.763 191.396H152.882C153.444 191.396 153.899 191.852 153.899 192.413V199.532C153.899 200.094 153.444 200.549 152.882 200.549H145.763C145.202 200.549 144.746 200.094 144.746 199.532Z" fill="#2F2F2F"/>
<path d="M155.816 199.532V192.413C155.816 191.852 156.271 191.396 156.833 191.396H163.951C164.513 191.396 164.969 191.852 164.969 192.413V199.532C164.969 200.094 164.513 200.549 163.951 200.549H156.833C156.271 200.549 155.816 200.094 155.816 199.532Z" fill="#2F2F2F"/>
<path d="M166.885 199.532V192.413C166.885 191.852 167.34 191.396 167.902 191.396H175.021C175.583 191.396 176.038 191.852 176.038 192.413V199.532C176.038 200.094 175.583 200.549 175.021 200.549H167.902C167.34 200.549 166.885 200.094 166.885 199.532Z" fill="#2F2F2F"/>
<path d="M177.954 199.532V192.413C177.954 191.852 178.41 191.396 178.971 191.396H186.09C186.652 191.396 187.107 191.852 187.107 192.413V199.532C187.107 200.094 186.652 200.549 186.09 200.549H178.971C178.41 200.549 177.954 200.094 177.954 199.532Z" fill="#2F2F2F"/>
<path d="M189.023 199.532V192.413C189.023 191.852 189.479 191.396 190.041 191.396H197.159C197.721 191.396 198.176 191.852 198.176 192.413V199.532C198.176 200.094 197.721 200.549 197.159 200.549H190.041C189.479 200.549 189.023 200.094 189.023 199.532Z" fill="#2F2F2F"/>
<path d="M200.093 199.532V192.413C200.093 191.852 200.548 191.396 201.11 191.396H208.228C208.79 191.396 209.245 191.852 209.245 192.413V199.532C209.245 200.094 208.79 200.549 208.228 200.549H201.11C200.548 200.549 200.093 200.094 200.093 199.532Z" fill="#2F2F2F"/>
<path d="M211.162 199.532V192.413C211.162 191.852 211.618 191.396 212.179 191.396H219.298C219.86 191.396 220.315 191.852 220.315 192.413V199.532C220.315 200.094 219.86 200.549 219.298 200.549H212.179C211.617 200.549 211.162 200.094 211.162 199.532Z" fill="#2F2F2F"/>
<path d="M222.231 199.532V192.413C222.231 191.852 222.687 191.396 223.248 191.396H230.367C230.929 191.396 231.384 191.852 231.384 192.413V199.532C231.384 200.094 230.929 200.549 230.367 200.549H223.248C222.686 200.549 222.231 200.094 222.231 199.532Z" fill="#2F2F2F"/>
<path d="M233.301 199.532V192.413C233.301 191.852 233.756 191.396 234.318 191.396H241.436C241.998 191.396 242.453 191.852 242.453 192.413V199.532C242.453 200.094 241.998 200.549 241.436 200.549H234.318C233.756 200.549 233.301 200.094 233.301 199.532Z" fill="#2F2F2F"/>
<path d="M244.37 199.532V192.413C244.37 191.852 244.825 191.396 245.387 191.396H252.505C253.067 191.396 253.523 191.852 253.523 192.413V199.532C253.523 200.094 253.067 200.549 252.505 200.549H245.387C244.825 200.549 244.37 200.094 244.37 199.532Z" fill="#2F2F2F"/>
<path d="M263.575 200.549H256.456C255.894 200.549 255.439 200.094 255.439 199.532V192.413C255.439 191.852 255.894 191.396 256.456 191.396H263.575C264.136 191.396 264.592 191.852 264.592 192.413V199.532C264.592 200.094 264.136 200.549 263.575 200.549Z" fill="#2F2F2F"/>
<path d="M119.675 177.159H112.556C111.995 177.159 111.539 176.704 111.539 176.142V173.6C111.539 173.038 111.995 172.583 112.556 172.583H119.675C120.237 172.583 120.692 173.038 120.692 173.6V176.142C120.692 176.704 120.236 177.159 119.675 177.159Z" fill="#2F2F2F"/>
<path d="M122.608 176.142V173.6C122.608 173.038 123.063 172.583 123.625 172.583H130.744C131.305 172.583 131.761 173.038 131.761 173.6V176.142C131.761 176.704 131.305 177.159 130.744 177.159H123.625C123.063 177.159 122.608 176.704 122.608 176.142Z" fill="#2F2F2F"/>
<path d="M133.677 176.142V173.6C133.677 173.038 134.132 172.583 134.694 172.583H141.813C142.375 172.583 142.83 173.038 142.83 173.6V176.142C142.83 176.704 142.375 177.159 141.813 177.159H134.694C134.132 177.159 133.677 176.704 133.677 176.142Z" fill="#2F2F2F"/>
<path d="M144.746 176.142V173.6C144.746 173.038 145.202 172.583 145.763 172.583H152.882C153.444 172.583 153.899 173.038 153.899 173.6V176.142C153.899 176.704 153.444 177.159 152.882 177.159H145.763C145.202 177.159 144.746 176.704 144.746 176.142Z" fill="#2F2F2F"/>
<path d="M155.816 176.142V173.6C155.816 173.038 156.271 172.583 156.833 172.583H163.951C164.513 172.583 164.969 173.038 164.969 173.6V176.142C164.969 176.704 164.513 177.159 163.951 177.159H156.833C156.271 177.159 155.816 176.704 155.816 176.142Z" fill="#2F2F2F"/>
<path d="M166.885 176.142V173.6C166.885 173.038 167.34 172.583 167.902 172.583H175.021C175.582 172.583 176.038 173.038 176.038 173.6V176.142C176.038 176.704 175.582 177.159 175.021 177.159H167.902C167.34 177.159 166.885 176.704 166.885 176.142Z" fill="#2F2F2F"/>
<path d="M177.954 176.142V173.6C177.954 173.038 178.41 172.583 178.971 172.583H186.09C186.652 172.583 187.107 173.038 187.107 173.6V176.142C187.107 176.704 186.652 177.159 186.09 177.159H178.971C178.41 177.159 177.954 176.704 177.954 176.142Z" fill="#2F2F2F"/>
<path d="M189.023 176.142V173.6C189.023 173.038 189.479 172.583 190.041 172.583H197.159C197.721 172.583 198.176 173.038 198.176 173.6V176.142C198.176 176.704 197.721 177.159 197.159 177.159H190.041C189.479 177.159 189.023 176.704 189.023 176.142Z" fill="#2F2F2F"/>
<path d="M200.093 176.142V173.6C200.093 173.038 200.548 172.583 201.11 172.583H208.228C208.79 172.583 209.245 173.038 209.245 173.6V176.142C209.245 176.704 208.79 177.159 208.228 177.159H201.11C200.548 177.159 200.093 176.704 200.093 176.142Z" fill="#2F2F2F"/>
<path d="M211.162 176.142V173.6C211.162 173.038 211.618 172.583 212.179 172.583H219.298C219.86 172.583 220.315 173.038 220.315 173.6V176.142C220.315 176.704 219.86 177.159 219.298 177.159H212.179C211.617 177.159 211.162 176.704 211.162 176.142Z" fill="#2F2F2F"/>
<path d="M222.231 176.142V173.6C222.231 173.038 222.687 172.583 223.248 172.583H230.367C230.929 172.583 231.384 173.038 231.384 173.6V176.142C231.384 176.704 230.929 177.159 230.367 177.159H223.248C222.686 177.159 222.231 176.704 222.231 176.142Z" fill="#2F2F2F"/>
<path d="M233.301 176.142V173.6C233.301 173.038 233.756 172.583 234.318 172.583H241.436C241.998 172.583 242.453 173.038 242.453 173.6V176.142C242.453 176.704 241.998 177.159 241.436 177.159H234.318C233.756 177.159 233.301 176.704 233.301 176.142Z" fill="#2F2F2F"/>
<path d="M244.37 176.142V173.6C244.37 173.038 244.825 172.583 245.387 172.583H252.505C253.067 172.583 253.523 173.038 253.523 173.6V176.142C253.523 176.704 253.067 177.159 252.505 177.159H245.387C244.825 177.159 244.37 176.704 244.37 176.142Z" fill="#2F2F2F"/>
<path d="M263.575 177.159H256.456C255.894 177.159 255.439 176.704 255.439 176.142V173.6C255.439 173.038 255.894 172.583 256.456 172.583H263.575C264.136 172.583 264.592 173.038 264.592 173.6V176.142C264.592 176.704 264.136 177.159 263.575 177.159Z" fill="#2F2F2F"/>
<path d="M125.415 203.092H112.556C111.994 203.092 111.539 203.547 111.539 204.109V211.228C111.539 211.789 111.994 212.245 112.556 212.245H125.415C125.977 212.245 126.433 211.789 126.433 211.228V204.108C126.432 203.547 125.977 203.092 125.415 203.092Z" fill="#2F2F2F"/>
<path d="M263.722 203.092H250.863C250.301 203.092 249.845 203.547 249.845 204.109V211.228C249.845 211.789 250.301 212.245 250.863 212.245H263.722C264.284 212.245 264.739 211.789 264.739 211.228V204.108C264.739 203.547 264.284 203.092 263.722 203.092Z" fill="#2F2F2F"/>
<path d="M263.722 179.701H250.863C250.301 179.701 249.845 180.157 249.845 180.718V187.837C249.845 188.399 250.301 188.854 250.863 188.854H263.722C264.284 188.854 264.739 188.399 264.739 187.837V180.718C264.739 180.157 264.284 179.701 263.722 179.701Z" fill="#2F2F2F"/>
<path d="M128.349 211.227V204.108C128.349 203.547 128.804 203.091 129.366 203.091H136.484C137.046 203.091 137.502 203.547 137.502 204.108V211.227C137.502 211.789 137.046 212.244 136.484 212.244H129.366C128.804 212.244 128.349 211.789 128.349 211.227Z" fill="#2F2F2F"/>
<path d="M139.418 211.227V204.108C139.418 203.547 139.873 203.091 140.435 203.091H147.554C148.115 203.091 148.571 203.547 148.571 204.108V211.227C148.571 211.789 148.115 212.244 147.554 212.244H140.435C139.873 212.244 139.418 211.789 139.418 211.227Z" fill="#2F2F2F"/>
<path d="M150.488 211.227V204.108C150.488 203.547 150.943 203.091 151.505 203.091H158.623C159.185 203.091 159.64 203.547 159.64 204.108V211.227C159.64 211.789 159.185 212.244 158.623 212.244H151.504C150.943 212.244 150.488 211.789 150.488 211.227Z" fill="#2F2F2F"/>
<path d="M161.557 211.227V204.108C161.557 203.547 162.012 203.091 162.574 203.091H169.692C170.254 203.091 170.71 203.547 170.71 204.108V211.227C170.71 211.789 170.254 212.244 169.692 212.244H162.574C162.012 212.244 161.557 211.789 161.557 211.227Z" fill="#2F2F2F"/>
<path d="M172.626 211.227V204.108C172.626 203.547 173.081 203.091 173.643 203.091H180.762C181.323 203.091 181.779 203.547 181.779 204.108V211.227C181.779 211.789 181.323 212.244 180.762 212.244H173.643C173.081 212.244 172.626 211.789 172.626 211.227Z" fill="#2F2F2F"/>
<path d="M183.695 211.227V204.108C183.695 203.547 184.15 203.091 184.712 203.091H191.831C192.393 203.091 192.848 203.547 192.848 204.108V211.227C192.848 211.789 192.393 212.244 191.831 212.244H184.712C184.15 212.244 183.695 211.789 183.695 211.227Z" fill="#2F2F2F"/>
<path d="M194.764 211.227V204.108C194.764 203.547 195.22 203.091 195.781 203.091H202.9C203.462 203.091 203.917 203.547 203.917 204.108V211.227C203.917 211.789 203.462 212.244 202.9 212.244H195.781C195.22 212.244 194.764 211.789 194.764 211.227Z" fill="#2F2F2F"/>
<path d="M205.834 211.227V204.108C205.834 203.547 206.289 203.091 206.851 203.091H213.97C214.531 203.091 214.987 203.547 214.987 204.108V211.227C214.987 211.789 214.531 212.244 213.97 212.244H206.851C206.289 212.244 205.834 211.789 205.834 211.227Z" fill="#2F2F2F"/>
<path d="M216.903 211.227V204.108C216.903 203.547 217.358 203.091 217.92 203.091H225.039C225.6 203.091 226.056 203.547 226.056 204.108V211.227C226.056 211.789 225.6 212.244 225.039 212.244H217.92C217.358 212.244 216.903 211.789 216.903 211.227Z" fill="#2F2F2F"/>
<path d="M227.972 211.227V204.108C227.972 203.547 228.428 203.091 228.989 203.091H236.108C236.67 203.091 237.125 203.547 237.125 204.108V211.227C237.125 211.789 236.67 212.244 236.108 212.244H228.989C228.428 212.244 227.972 211.789 227.972 211.227Z" fill="#2F2F2F"/>
<path d="M239.041 211.227V204.108C239.041 203.547 239.497 203.091 240.058 203.091H247.177C247.739 203.091 248.194 203.547 248.194 204.108V211.227C248.194 211.789 247.739 212.244 247.177 212.244H240.058C239.497 212.244 239.041 211.789 239.041 211.227Z" fill="#2F2F2F"/>
<path d="M130.832 223.939H112.555C111.994 223.939 111.538 223.484 111.538 222.922V215.803C111.538 215.242 111.994 214.786 112.555 214.786H130.832C131.393 214.786 131.849 215.242 131.849 215.803V222.922C131.849 223.484 131.393 223.939 130.832 223.939Z" fill="#2F2F2F"/>
<path d="M133.677 222.922V215.803C133.677 215.242 134.132 214.786 134.694 214.786H141.813C142.375 214.786 142.83 215.242 142.83 215.803V222.922C142.83 223.484 142.375 223.939 141.813 223.939H134.694C134.132 223.939 133.677 223.484 133.677 222.922Z" fill="#2F2F2F"/>
<path d="M144.746 222.922V215.803C144.746 215.242 145.202 214.786 145.763 214.786H152.882C153.444 214.786 153.899 215.242 153.899 215.803V222.922C153.899 223.484 153.444 223.939 152.882 223.939H145.763C145.202 223.939 144.746 223.484 144.746 222.922Z" fill="#2F2F2F"/>
<path d="M155.816 222.922V215.803C155.816 215.242 156.271 214.786 156.833 214.786H163.952C164.513 214.786 164.969 215.242 164.969 215.803V222.922C164.969 223.484 164.513 223.939 163.952 223.939H156.833C156.271 223.939 155.816 223.484 155.816 222.922Z" fill="#2F2F2F"/>
<path d="M166.885 222.922V215.803C166.885 215.242 167.34 214.786 167.902 214.786H175.021C175.582 214.786 176.038 215.242 176.038 215.803V222.922C176.038 223.484 175.582 223.939 175.021 223.939H167.902C167.34 223.939 166.885 223.484 166.885 222.922Z" fill="#2F2F2F"/>
<path d="M177.954 222.922V215.803C177.954 215.242 178.41 214.786 178.971 214.786H186.09C186.652 214.786 187.107 215.242 187.107 215.803V222.922C187.107 223.484 186.652 223.939 186.09 223.939H178.971C178.41 223.939 177.954 223.484 177.954 222.922Z" fill="#2F2F2F"/>
<path d="M189.023 222.922V215.803C189.023 215.242 189.479 214.786 190.041 214.786H197.159C197.721 214.786 198.176 215.242 198.176 215.803V222.922C198.176 223.484 197.721 223.939 197.159 223.939H190.041C189.479 223.939 189.023 223.484 189.023 222.922Z" fill="#2F2F2F"/>
<path d="M200.093 222.922V215.803C200.093 215.242 200.548 214.786 201.11 214.786H208.228C208.79 214.786 209.245 215.242 209.245 215.803V222.922C209.245 223.484 208.79 223.939 208.228 223.939H201.11C200.548 223.939 200.093 223.484 200.093 222.922Z" fill="#2F2F2F"/>
<path d="M211.162 222.922V215.803C211.162 215.242 211.618 214.786 212.179 214.786H219.298C219.86 214.786 220.315 215.242 220.315 215.803V222.922C220.315 223.484 219.86 223.939 219.298 223.939H212.179C211.617 223.939 211.162 223.484 211.162 222.922Z" fill="#2F2F2F"/>
<path d="M222.231 222.922V215.803C222.231 215.242 222.687 214.786 223.248 214.786H230.367C230.929 214.786 231.384 215.242 231.384 215.803V222.922C231.384 223.484 230.929 223.939 230.367 223.939H223.248C222.686 223.939 222.231 223.484 222.231 222.922Z" fill="#2F2F2F"/>
<path d="M233.301 222.922V215.803C233.301 215.242 233.756 214.786 234.318 214.786H241.436C241.998 214.786 242.453 215.242 242.453 215.803V222.922C242.453 223.484 241.998 223.939 241.436 223.939H234.318C233.756 223.939 233.301 223.484 233.301 222.922Z" fill="#2F2F2F"/>
<path d="M244.37 222.922V215.803C244.767 215.406 244.99 215.183 245.387 214.786H263.545C263.942 215.183 264.165 215.406 264.562 215.803V222.922C264.165 223.319 263.942 223.542 263.545 223.939H245.387C244.99 223.542 244.767 223.32 244.37 222.922Z" fill="#2F2F2F"/>
<path d="M119.675 235.404H112.556C111.994 235.404 111.539 234.948 111.539 234.386V227.268C111.539 226.706 111.994 226.251 112.556 226.251H119.675C120.236 226.251 120.692 226.706 120.692 227.268V234.386C120.691 234.948 120.236 235.404 119.675 235.404Z" fill="#2F2F2F"/>
<path d="M122.608 234.386V227.267C122.608 226.706 123.063 226.25 123.625 226.25H130.744C131.305 226.25 131.761 226.706 131.761 227.267V234.386C131.761 234.948 131.305 235.403 130.744 235.403H123.625C123.063 235.403 122.608 234.948 122.608 234.386Z" fill="#2F2F2F"/>
<path d="M133.677 234.386V227.267C133.677 226.706 134.132 226.25 134.694 226.25H141.813C142.375 226.25 142.83 226.706 142.83 227.267V234.386C142.83 234.948 142.375 235.403 141.813 235.403H134.694C134.132 235.403 133.677 234.948 133.677 234.386Z" fill="#2F2F2F"/>
<path d="M144.746 234.386V227.267C145.308 227.267 145.763 226.812 145.763 226.25H152.882C152.882 226.812 153.337 227.267 153.899 227.267V234.386C153.337 234.386 152.882 234.841 152.882 235.403H145.763C145.763 234.841 145.308 234.386 144.746 234.386Z" fill="#2F2F2F"/>
<path d="M155.602 234.386V227.267C155.602 226.706 156.057 226.25 156.619 226.25H219.337C219.899 226.25 220.354 226.706 220.354 227.267V234.386C220.354 234.948 219.899 235.403 219.337 235.403H156.618C156.057 235.403 155.602 234.948 155.602 234.386Z" fill="#2F2F2F"/>
<path d="M222.231 234.386V227.267C222.231 226.706 222.687 226.25 223.248 226.25H230.367C230.929 226.25 231.384 226.706 231.384 227.267V234.386C231.384 234.948 230.929 235.403 230.367 235.403H223.248C222.686 235.403 222.231 234.948 222.231 234.386Z" fill="#2F2F2F"/>
<path d="M233.344 234.386V227.267C233.344 226.706 233.799 226.25 234.361 226.25H241.48C242.041 226.25 242.497 226.706 242.497 227.267V234.386C242.497 234.948 242.041 235.403 241.48 235.403H234.361C233.799 235.403 233.344 234.948 233.344 234.386Z" fill="#2F2F2F"/>
<path d="M255.384 234.429V227.31C255.384 226.749 255.839 226.293 256.401 226.293H263.52C264.081 226.293 264.537 226.749 264.537 227.31V234.429C264.537 234.991 264.081 235.446 263.52 235.446H256.401C255.839 235.446 255.384 234.991 255.384 234.429Z" fill="#2F2F2F"/>
<path d="M252.73 230.417H245.611C245.049 230.417 244.594 229.961 244.594 229.4V227.267C244.594 226.705 245.049 226.25 245.611 226.25H252.73C253.291 226.25 253.747 226.705 253.747 227.267V229.4C253.747 229.961 253.291 230.417 252.73 230.417Z" fill="#2F2F2F"/>
<path d="M252.73 235.417H245.611C245.049 235.417 244.594 234.961 244.594 234.4V232.267C244.594 231.705 245.049 231.25 245.611 231.25H252.73C253.291 231.25 253.747 231.705 253.747 232.267V234.4C253.747 234.961 253.291 235.417 252.73 235.417Z" fill="#2F2F2F"/>
<path d="M82.7354 81.8054V79.5058C82.7354 76.3887 84.4499 73.472 87.6274 73.472H288.293C291.47 73.472 293.185 75.972 293.185 79.5058V82.222L82.7354 81.8054Z" fill="#CFCFCF"/>
<path d="M103.711 154.373H166.711L233.377 87.7067H90.0508L103.711 154.373Z" fill="#F2F2F2"/>
<path d="M272.536 154.165L285.525 87.915H231.873L165.623 154.165H272.536Z" fill="#E6E6E6"/>
<path d="M104.627 153.608L91.28 88.4721H232.148L243.6 77.0204L242.965 76.8234H87.6375C84.4566 76.8234 82.0846 79.7542 82.7471 82.865L98.3666 156.181C98.8583 158.489 100.897 160.139 103.257 160.139H160.482L167.013 153.608H104.627V153.608Z" fill="#2F2F2F"/>
<path d="M288.282 76.8234H242.964L231.314 88.4725H284.064L271.293 153.608H166.179L159.648 160.139H272.663C275.023 160.139 277.062 158.489 277.553 156.181L293.173 82.865C293.836 79.7542 291.463 76.8234 288.282 76.8234Z" fill="#505050"/>
<path d="M210.376 127.165H167.043C166.353 127.165 165.793 126.606 165.793 125.915C165.793 125.225 166.353 124.665 167.043 124.665H210.376C211.067 124.665 211.626 125.225 211.626 125.915C211.626 126.606 211.067 127.165 210.376 127.165Z" fill="white"/>
</svg>
